<svg width="22" height="27" viewBox="0 0 22 27" fill="none" xmlns="http://www.w3.org/2000/svg">
<path fill-rule="evenodd" clip-rule="evenodd" d="M18.1725 14.117C18.1874 16.4645 19.5976 18.578 21.7595 19.493C21.3301 20.8358 20.7073 22.1089 19.9105 23.272C18.7965 24.891 17.6405 26.504 15.8195 26.537C14.0305 26.57 13.4545 25.482 11.4085 25.482C9.36252 25.482 8.72452 26.5 7.03052 26.57C5.27252 26.636 3.93052 24.82 2.81152 23.207C0.516519 19.907 -1.23748 13.885 1.11752 9.819C2.24749 7.81424 4.34705 6.54995 6.64752 6.489C8.37252 6.456 9.99952 7.644 11.0575 7.644C12.1155 7.644 14.0915 6.216 16.1735 6.426C18.125 6.49356 19.9329 7.46855 21.0615 9.062C19.2918 10.1369 18.2004 12.0476 18.1735 14.118L18.1725 14.117ZM14.8095 4.243C15.8174 3.0691 16.3175 1.54274 16.1995 0C14.6786 0.145588 13.2706 0.865893 12.2625 2.014C11.2498 3.13367 10.7376 4.61805 10.8445 6.124C12.3865 6.14653 13.8515 5.45154 14.8095 4.243Z" fill="white"/>
</svg>
