<svg width="24" height="24" viewBox="0 0 24 24" fill="none" xmlns="http://www.w3.org/2000/svg">
<path fill-rule="evenodd" clip-rule="evenodd" d="M12 10.2849V14.3999H18.806C18.531 16.1649 16.75 19.5739 12 19.5739C7.86498 19.5067 4.54808 16.1354 4.54807 11.9999C4.54807 7.86431 7.86495 4.49307 12 4.42586C13.7761 4.38891 15.4952 5.05322 16.785 6.27486L20.039 3.13686C17.8673 1.0886 14.985 -0.0361431 12 -0.000139005C5.37258 -0.000138051 0 5.37245 0 11.9999C9.53674e-07 18.6273 5.37258 23.9999 12 23.9999C18.926 23.9999 23.52 19.1309 23.52 12.2739C23.5178 11.6065 23.4546 10.9407 23.331 10.2848L12 10.2849Z" fill="white"/>
</svg>
